<svg aria-hidden="true" style="position: absolute; width: 0; height: 0; overflow: hidden;" version="1.1" xmlns="http://www.w3.org/2000/svg" xmlns:xlink="http://www.w3.org/1999/xlink">
<defs>
<symbol id="icon-science" viewBox="0 0 32 32">
<path d="M17.333 15.107l6.667 8.893h-16l6.667-8.893v-7.107h2.667zM21.28 5.333h-10.56c-0.56 0-0.867 0.64-0.52 1.080l1.8 2.253v5.56l-7.733 10.307c-0.653 0.88-0.027 2.133 1.067 2.133h21.333c1.093 0 1.72-1.253 1.067-2.133l-7.733-10.307v-5.56l1.8-2.253c0.347-0.44 0.040-1.080-0.52-1.080z"></path>
</symbol>
<symbol id="icon-opacity" viewBox="0 0 32 32">
<path d="M23.547 10.66l-7.547-7.533-7.547 7.533c-2.080 2.080-3.12 4.853-3.12 7.52s1.040 5.48 3.12 7.56 4.813 3.133 7.547 3.133c2.733 0 5.467-1.053 7.547-3.133s3.12-4.893 3.12-7.56c0-2.667-1.040-5.44-3.12-7.52zM8 18.66c0.013-2.667 0.827-4.36 2.347-5.867l5.653-5.773 5.653 5.84c1.52 1.493 2.333 3.133 2.347 5.8h-16z"></path>
</symbol>
<symbol id="icon-device_hub" viewBox="0 0 32 32">
<path d="M22.667 21.333l-5.333-5.333v-4.24c1.547-0.56 2.667-2.027 2.667-3.76 0-2.213-1.787-4-4-4s-4 1.787-4 4c0 1.733 1.12 3.2 2.667 3.76v4.24l-5.333 5.333h-5.333v6.667h6.667v-4.067l5.333-5.6 5.333 5.6v4.067h6.667v-6.667h-5.333z"></path>
</symbol>
<symbol id="icon-C" viewBox="0 0 58 32">
<path d="M20.104 15.884v7.156c-2.527 0.873-3.918 1.152-5.493 1.152-4.248 0-7.434-1.606-9.448-3.491-2.38-2.269-3.698-5.446-3.698-8.483 0-3.316 1.501-6.458 3.698-8.588 2.16-2.095 5.42-3.631 9.228-3.631 1.172 0 3.076 0.175 5.713 1.187v7.226c-2.051-2.409-4.468-2.548-5.529-2.548-1.831 0-3.222 0.524-4.394 1.536-1.501 1.327-2.124 3.142-2.124 4.783 0 1.606 0.696 3.386 1.977 4.538 1.062 0.943 2.746 1.606 4.541 1.606 0.952 0 3.296-0.105 5.529-2.444z"></path>
<path d="M22.772 13.894v-4.189h5.566v-5.341h4.76v5.341h5.566v4.189h-5.566v5.341h-4.76v-5.341h-5.566z"></path>
<path d="M41.081 13.894v-4.189h5.566v-5.341h4.76v5.341h5.566v4.189h-5.566v5.341h-4.76v-5.341h-5.566z"></path>
<path d="M0 27.159h58.182v4.841h-58.182v-4.841z"></path>
</symbol>
<symbol id="icon-grass" viewBox="0 0 32 32">
<path d="M16 26.667h-13.333v-2.667h7.667c-0.973-3.747-3.92-6.68-7.667-7.653 0.853-0.213 1.747-0.347 2.667-0.347 5.893 0 10.667 4.773 10.667 10.667zM29.333 16.347c-0.853-0.213-1.747-0.347-2.667-0.347-3.907 0-7.307 2.107-9.173 5.24 0.387 0.88 0.707 1.8 0.893 2.76 0.173 0.867 0.267 1.76 0.267 2.667h10.667v-2.667h-7.667c0.987-3.747 3.933-6.68 7.68-7.653zM20.853 14.693c1.040-2.787 2.973-5.12 5.453-6.667-5.72 0.187-10.307 4.867-10.307 10.64 0 0.013 0 0.027 0 0.027 1.267-1.693 2.933-3.067 4.853-4zM15.227 11.8c-1.12-2.92-3.387-5.28-6.293-6.467 1.92 2.48 3.067 5.573 3.067 8.947 0 0.28-0.040 0.547-0.053 0.813 0.573 0.32 1.107 0.693 1.627 1.093 0.28-1.573 0.867-3.053 1.653-4.387z"></path>
</symbol>
<symbol id="icon-biotech" viewBox="0 0 32 32">
<path d="M9.333 26c-1.467 0-2.667 1.2-2.667 2.667h18.667c0-1.467-1.2-2.667-2.667-2.667h-5.333v-2.667h4c1.467 0 2.667-1.2 2.667-2.667h-10.667c-2.213 0-4-1.787-4-4 0-1.453 0.787-2.72 1.96-3.427 0.547 0.787 1.413 1.333 2.44 1.413 0.933 0.080 1.813-0.253 2.467-0.827l0.787 2.147 1.253-0.453 0.453 1.253 2.507-0.907-0.453-1.253 1.253-0.453-3.653-10.027-1.253 0.453-0.453-1.253-2.507 0.907 0.453 1.253-1.253 0.467 0.747 2.067c-1.56-0.053-2.92 1-3.307 2.48-2.413 1.013-4.107 3.387-4.107 6.16 0 3.68 2.987 6.667 6.667 6.667v2.667h-4zM17.147 6.693l2.28 6.267-1.253 0.453-2.28-6.267 1.253-0.453zM14 10c0.733 0 1.333 0.6 1.333 1.333s-0.6 1.333-1.333 1.333c-0.733 0-1.333-0.6-1.333-1.333s0.6-1.333 1.333-1.333z"></path>
</symbol>
</defs>
</svg>
