<!-- Generated by IcoMoon.io -->
<svg version="1.1" xmlns="http://www.w3.org/2000/svg" width="32" height="32" viewBox="0 0 32 32">
<path d="M9.333 26c-1.467 0-2.667 1.2-2.667 2.667h18.667c0-1.467-1.2-2.667-2.667-2.667h-5.333v-2.667h4c1.467 0 2.667-1.2 2.667-2.667h-10.667c-2.213 0-4-1.787-4-4 0-1.453 0.787-2.72 1.96-3.427 0.547 0.787 1.413 1.333 2.44 1.413 0.933 0.080 1.813-0.253 2.467-0.827l0.787 2.147 1.253-0.453 0.453 1.253 2.507-0.907-0.453-1.253 1.253-0.453-3.653-10.027-1.253 0.453-0.453-1.253-2.507 0.907 0.453 1.253-1.253 0.467 0.747 2.067c-1.56-0.053-2.92 1-3.307 2.48-2.413 1.013-4.107 3.387-4.107 6.16 0 3.68 2.987 6.667 6.667 6.667v2.667h-4zM17.147 6.693l2.28 6.267-1.253 0.453-2.28-6.267 1.253-0.453zM14 10c0.733 0 1.333 0.6 1.333 1.333s-0.6 1.333-1.333 1.333c-0.733 0-1.333-0.6-1.333-1.333s0.6-1.333 1.333-1.333z"></path>
</svg>
