<!-- Generated by IcoMoon.io -->
<svg version="1.1" xmlns="http://www.w3.org/2000/svg" width="58" height="32" viewBox="0 0 58 32">
<path d="M20.104 15.884v7.156c-2.527 0.873-3.918 1.152-5.493 1.152-4.248 0-7.434-1.606-9.448-3.491-2.38-2.269-3.698-5.446-3.698-8.483 0-3.316 1.501-6.458 3.698-8.588 2.16-2.095 5.42-3.631 9.228-3.631 1.172 0 3.076 0.175 5.713 1.187v7.226c-2.051-2.409-4.468-2.548-5.529-2.548-1.831 0-3.222 0.524-4.394 1.536-1.501 1.327-2.124 3.142-2.124 4.783 0 1.606 0.696 3.386 1.977 4.538 1.062 0.943 2.746 1.606 4.541 1.606 0.952 0 3.296-0.105 5.529-2.444z"></path>
<path d="M22.772 13.894v-4.189h5.566v-5.341h4.76v5.341h5.566v4.189h-5.566v5.341h-4.76v-5.341h-5.566z"></path>
<path d="M41.081 13.894v-4.189h5.566v-5.341h4.76v5.341h5.566v4.189h-5.566v5.341h-4.76v-5.341h-5.566z"></path>
<path d="M0 27.159h58.182v4.841h-58.182v-4.841z"></path>
</svg>
