<!-- Generated by IcoMoon.io -->
<svg version="1.1" xmlns="http://www.w3.org/2000/svg" width="32" height="32" viewBox="0 0 32 32">
<path d="M16 26.667h-13.333v-2.667h7.667c-0.973-3.747-3.92-6.68-7.667-7.653 0.853-0.213 1.747-0.347 2.667-0.347 5.893 0 10.667 4.773 10.667 10.667zM29.333 16.347c-0.853-0.213-1.747-0.347-2.667-0.347-3.907 0-7.307 2.107-9.173 5.24 0.387 0.88 0.707 1.8 0.893 2.76 0.173 0.867 0.267 1.76 0.267 2.667h10.667v-2.667h-7.667c0.987-3.747 3.933-6.68 7.68-7.653zM20.853 14.693c1.040-2.787 2.973-5.12 5.453-6.667-5.72 0.187-10.307 4.867-10.307 10.64 0 0.013 0 0.027 0 0.027 1.267-1.693 2.933-3.067 4.853-4zM15.227 11.8c-1.12-2.92-3.387-5.28-6.293-6.467 1.92 2.48 3.067 5.573 3.067 8.947 0 0.28-0.040 0.547-0.053 0.813 0.573 0.32 1.107 0.693 1.627 1.093 0.28-1.573 0.867-3.053 1.653-4.387z"></path>
</svg>
