<svg width="107" height="204" viewBox="0 0 107 204" fill="none" xmlns="http://www.w3.org/2000/svg">
<path d="M48.372 1.91432C43.5336 4.74326 41.9181 10.9539 44.7636 15.7863C47.6123 20.6172 53.8432 22.24 58.6815 19.4111C63.5222 16.5829 65.1362 10.3692 62.2922 5.53977C59.4443 0.706621 53.2111 -0.916914 48.372 1.91432ZM46.516 31.328C49.4323 31.8022 52.418 31.6041 55.1908 30.586L64.3913 27.2008C69.136 25.4555 73.1112 22.0141 75.3152 17.4724C75.8382 16.3912 76.4892 15.3532 77.2701 14.3766C83.1212 7.05187 93.9645 6.0315 101.125 12.2821C107.516 17.8618 108.614 27.5045 103.642 34.3538C96.9487 43.5824 87.5897 41.0924 82.3001 38.5137C79.3303 37.0681 75.8964 36.9168 72.799 38.0565L65.0319 40.9123C60.1931 42.6908 58.4329 48.608 61.5068 52.7454L65.0741 57.5444C69.2732 63.1905 75.6172 66.7757 82.5942 67.7543C86.1431 68.2526 89.6105 69.677 92.6187 72.069C101.704 79.2945 103.099 92.5741 95.6138 101.498C88.6696 109.779 75.5935 111.161 67.0298 104.525C60.8238 99.716 58.1101 92.1178 59.2565 84.9224C60.3546 78.0146 58.7278 70.9459 54.545 65.3202L47.7739 56.2112C45.9817 53.7989 43.6116 51.8595 40.8524 50.6676C40.0396 50.3186 39.2648 49.8579 38.5417 49.2824C35.3536 46.7474 34.0951 42.6943 34.9733 38.9889L35.2987 37.9005C35.6648 36.8831 36.1985 35.9038 36.912 35.0118C39.2858 32.039 42.9988 30.7539 46.516 31.328Z" fill="url(#paint0_linear_5216_683)"/>
<path d="M48.8148 184.956C43.9765 187.785 42.3609 193.995 45.2088 198.828C48.0528 203.658 54.286 205.281 59.1244 202.452C63.9658 199.622 65.5806 193.413 62.7327 188.58C59.8871 183.748 53.6562 182.125 48.8148 184.956ZM61.4091 174.478C58.5202 173.853 55.5263 173.902 52.7055 174.776L43.3417 177.688C38.5125 179.189 34.3657 182.422 31.9334 186.846C31.3542 187.897 30.6501 188.903 29.8198 189.836C23.6011 196.852 12.719 197.317 5.88916 190.712C-0.208745 184.814 -0.809942 175.129 4.5039 168.54C11.6612 159.668 20.8831 162.63 26.0349 165.475C28.926 167.073 32.3496 167.4 35.5005 166.419L43.4062 163.963C48.328 162.433 50.3933 156.615 47.5344 152.326L44.217 147.354C40.3145 141.499 34.1571 137.597 27.2419 136.265C23.7208 135.583 20.334 133.985 17.4516 131.444C8.74652 123.763 8.033 110.432 15.9671 101.903C23.3293 93.9878 36.4589 93.2744 44.672 100.337C50.6272 105.457 52.9439 113.182 51.4336 120.312C49.9799 127.152 51.2417 134.295 55.1317 140.125L61.4273 149.568C63.0912 152.066 65.3608 154.122 68.0581 155.453C68.8471 155.845 69.5996 156.344 70.2912 156.955C73.3452 159.65 74.3978 163.761 73.3283 167.416L72.95 168.488C72.5294 169.485 71.9465 170.436 71.1875 171.289C68.6631 174.138 64.8901 175.23 61.4091 174.478Z" fill="url(#paint1_linear_5216_683)"/>
<defs>
<linearGradient id="paint0_linear_5216_683" x1="58.2829" y1="-2.78164" x2="33.8041" y2="194.545" gradientUnits="userSpaceOnUse">
<stop stop-color="#30AB4C"/>
<stop offset="0.853177" stop-opacity="0"/>
</linearGradient>
<linearGradient id="paint1_linear_5216_683" x1="58.2829" y1="-2.78164" x2="33.8041" y2="194.545" gradientUnits="userSpaceOnUse">
<stop stop-color="#30AB4C"/>
<stop offset="0.853177" stop-opacity="0"/>
</linearGradient>
</defs>
</svg>
