<svg width="145" height="226" viewBox="0 0 145 226" fill="none" xmlns="http://www.w3.org/2000/svg">
<path d="M143.56 25.5778C146.089 31.3532 143.449 38.0722 137.662 40.5851C131.874 43.0945 125.132 40.4473 122.602 34.672C120.07 28.8957 122.714 22.1751 128.497 19.6639C134.286 17.1519 141.031 19.7999 143.56 25.5778ZM125.783 53.5636C122.816 52.065 120.231 49.909 118.382 47.1478L112.253 37.9797C109.092 33.2521 107.753 27.4908 108.754 21.9007C108.993 20.5711 109.088 19.196 109.024 17.7908C108.549 7.2554 99.3597 -0.848601 88.7098 0.0991671C79.2031 0.945419 71.8232 8.99085 71.813 18.5115C71.7949 31.3363 81.9566 35.2647 88.475 36.4194C92.1332 37.0697 95.3571 39.2045 97.4206 42.2911L102.596 50.029C105.821 54.849 103.507 61.3969 97.9724 63.1264L91.5514 65.1313C83.9951 67.4886 75.8514 66.5517 68.8568 62.8247C65.2986 60.9295 61.2018 59.9307 56.8822 60.1159C43.8361 60.6767 33.7788 71.8337 34.6822 84.9055C35.5195 97.0337 46.5003 106.944 58.682 106.575C67.5099 106.307 75.0068 101.191 78.7256 93.8867C82.2981 86.876 88.4558 81.5223 95.9838 79.1726L108.172 75.3672C111.398 74.3588 114.838 74.163 118.137 74.9047C119.107 75.1251 120.117 75.2188 121.155 75.1737C125.733 74.9774 129.56 72.1231 131.213 68.1712L131.638 66.9658C131.978 65.798 132.14 64.5539 132.082 63.2704C131.89 58.9951 129.362 55.3689 125.783 53.5636Z" fill="url(#paint0_linear_5216_402)"/>
<path d="M22.0252 191.796C24.5546 197.572 21.9142 204.291 16.1251 206.803C10.3419 209.314 3.5972 206.666 1.06787 200.89C-1.46318 195.112 1.17631 188.395 6.96546 185.883C12.752 183.37 19.4942 186.017 22.0252 191.796ZM17.5024 173.93C20.5436 175.274 23.2348 177.3 25.2223 179.961L31.8137 188.807C35.2133 193.368 36.8462 199.054 36.1313 204.687C35.9628 206.027 35.9376 207.408 36.0754 208.806C37.0894 219.304 46.6809 226.929 57.2652 225.44C66.7156 224.11 73.6714 215.698 73.1978 206.187C72.558 193.38 62.209 189.971 55.6394 189.15C51.9523 188.69 48.6213 186.722 46.4044 183.744L40.8377 176.279C37.3729 171.63 39.3442 164.971 44.783 162.961L51.0913 160.633C58.516 157.89 66.6996 158.415 73.8722 161.779C77.5263 163.489 81.665 164.276 85.9689 163.872C98.9706 162.646 108.442 150.991 106.868 137.982C105.409 125.909 93.9374 116.571 81.7924 117.561C72.9864 118.278 65.7669 123.772 62.4222 131.257C59.2179 138.442 53.3436 144.104 45.9463 146.834L33.9703 151.258C30.8037 152.429 27.3782 152.798 24.0434 152.224C23.0663 152.058 22.0515 152.014 21.018 152.112C16.4568 152.542 12.7783 155.586 11.3327 159.618L10.9676 160.844C10.6901 162.029 10.5909 163.28 10.7175 164.558C11.1283 168.82 13.8381 172.311 17.5024 173.93Z" fill="url(#paint1_linear_5216_402)"/>
<defs>
<linearGradient id="paint0_linear_5216_402" x1="137.651" y1="14.7472" x2="29.3346" y2="210.453" gradientUnits="userSpaceOnUse">
<stop stop-color="#30AB4C"/>
<stop offset="0.853177" stop-opacity="0"/>
</linearGradient>
<linearGradient id="paint1_linear_5216_402" x1="137.651" y1="14.7472" x2="29.3346" y2="210.453" gradientUnits="userSpaceOnUse">
<stop stop-color="#30AB4C"/>
<stop offset="0.853177" stop-opacity="0"/>
</linearGradient>
</defs>
</svg>
