<svg width="145" height="287" viewBox="0 0 145 287" fill="none" xmlns="http://www.w3.org/2000/svg">
<path d="M3.21855 21.6268C-1.10006 28.2027 0.743591 37.0199 7.3367 41.3206C13.9326 45.6175 22.7798 43.7703 27.0984 37.1944C31.4203 30.618 29.5728 21.7979 22.9836 17.5001C16.3871 13.1999 7.53664 15.0476 3.21855 21.6268ZM19.2371 59.769C23.1999 58.5457 26.8304 56.4337 29.6816 53.4235L39.138 43.4265C44.015 38.2717 46.866 31.4642 46.8036 24.3784C46.7867 22.6926 46.9576 20.9813 47.33 19.2661C50.117 6.40537 63.1145 -1.64313 76.0174 1.74879C87.5351 4.77686 94.9319 16.2165 92.9545 27.9304C90.2961 43.7106 76.9747 46.4192 68.7146 46.4771C64.0786 46.5124 59.6665 48.4647 56.483 51.8304L48.4986 60.2674C43.5241 65.5227 45.0027 74.0612 51.4493 77.3455L58.929 81.154C67.7316 85.6332 77.9454 86.1829 87.3288 83.0601C92.102 81.4725 97.3506 81.1 102.626 82.2308C118.557 85.6475 128.597 101.474 124.753 117.366C121.188 132.11 105.609 142.006 90.7008 139.006C79.8972 136.831 71.7442 128.971 68.6962 119.208C65.7669 109.837 59.311 101.964 50.5416 97.5005L36.3443 90.2718C32.5857 88.3568 28.3956 87.3971 24.1824 87.62C22.9427 87.6883 21.681 87.5925 20.4127 87.32C14.8224 86.1217 10.7112 81.8105 9.50341 76.6035L9.23349 75.032C9.05905 73.5243 9.11907 71.9599 9.45963 70.3933C10.5896 65.1741 14.4563 61.2416 19.2371 59.769Z" fill="url(#paint0_linear_5216_401)"/>
<path d="M117.981 251.503C113.663 258.079 115.506 266.896 122.103 271.196C128.692 275.494 137.543 273.646 141.861 267.07C146.183 260.491 144.339 251.677 137.743 247.377C131.15 243.076 122.303 244.923 117.981 251.503ZM127.28 230.47C123.257 231.487 119.524 233.417 116.522 236.276L106.565 245.78C101.429 250.68 98.2325 257.333 97.9344 264.413C97.8617 266.095 97.6041 267.799 97.1423 269.491C93.7006 282.193 80.308 289.567 67.599 285.523C56.2516 281.912 49.4531 270.11 52.0235 258.51C55.4875 242.889 68.9308 240.859 77.1839 241.222C81.8159 241.427 86.3248 239.702 89.6743 236.502L98.0826 228.482C103.317 223.487 102.283 214.883 96.0129 211.275L88.7393 207.093C80.1793 202.166 70.0025 201.101 60.476 203.74C55.6235 205.08 50.3677 205.184 45.1578 203.787C29.4201 199.561 20.2054 183.244 24.86 167.569C29.1783 153.023 45.242 143.934 59.9754 147.69C70.6582 150.412 78.3909 158.68 80.9407 168.588C83.3808 178.095 89.4236 186.288 97.9527 191.193L111.76 199.138C115.411 201.24 119.548 202.41 123.77 202.401C125.007 202.401 126.264 202.559 127.515 202.896C133.036 204.379 136.925 208.892 137.86 214.154L138.053 215.738C138.147 217.254 138.008 218.814 137.585 220.359C136.189 225.517 132.126 229.244 127.28 230.47Z" fill="url(#paint1_linear_5216_401)"/>
<defs>
<linearGradient id="paint0_linear_5216_401" x1="12.7503" y1="9.53843" x2="105.09" y2="272.926" gradientUnits="userSpaceOnUse">
<stop stop-color="#30AB4C"/>
<stop offset="0.853177" stop-opacity="0"/>
</linearGradient>
<linearGradient id="paint1_linear_5216_401" x1="12.7503" y1="9.53843" x2="105.09" y2="272.926" gradientUnits="userSpaceOnUse">
<stop stop-color="#30AB4C"/>
<stop offset="0.853177" stop-opacity="0"/>
</linearGradient>
</defs>
</svg>
